HIERARCHY
ROOT Hips
{
	OFFSET	0.00	0.00	0.00
	CHANNELS 6 Xposition Yposition Zposition Zrotation Xrotation Yrotation
	JOINT Spine
	{
		OFFSET	 0.001036	 0.054084	 0.002224
		CHANNELS 3 Zrotation Xrotation Yrotation
		JOINT Chest
		{
			OFFSET	 0.000000	 0.125398	-0.000225
			CHANNELS 3 Zrotation Xrotation Yrotation
			JOINT UpperChest
			{
				OFFSET	 0.000000	 0.129999	-0.000416
				CHANNELS 3 Zrotation Xrotation Yrotation
				JOINT Left_Shoulder
				{
					OFFSET	 0.031414	 0.212436	-0.009448
					CHANNELS 3 Zrotation Xrotation Yrotation
					JOINT Left_UpperArm
					{
						OFFSET	 0.187996	 0.004516	-0.000212
						CHANNELS 3 Zrotation Xrotation Yrotation
						JOINT Left_LowerArm
						{
							OFFSET	 0.000040	 0.344007	-0.001341
							CHANNELS 3 Zrotation Xrotation Yrotation
							JOINT Left_Hand
							{
								OFFSET	-0.000057	 0.351349	 0.000257
								CHANNELS 3 Zrotation Xrotation Yrotation
								JOINT Left_IndexProximal
								{
									OFFSET	-0.023797	 0.154463	 0.043738
									CHANNELS 3 Zrotation Xrotation Yrotation
									JOINT Left_IndexIntermediate
									{
										OFFSET	-0.000092	 0.064663	-0.000404
										CHANNELS 3 Zrotation Xrotation Yrotation
										JOINT Left_IndexDistal
										{
											OFFSET	-0.000047	 0.046385	-0.000439
											CHANNELS 3 Zrotation Xrotation Yrotation
											End Site
											{
												OFFSET	-0.000128	 0.124994	-0.001183
											}
										}
									}
								}
								JOINT Left_MiddleProximal
								{
									OFFSET	-0.033196	 0.152255	 0.009502
									CHANNELS 3 Zrotation Xrotation Yrotation
									JOINT Left_MiddleIntermediate
									{
										OFFSET	 0.004174	 0.086856	 0.006638
										CHANNELS 3 Zrotation Xrotation Yrotation
										JOINT Left_MiddleDistal
										{
											OFFSET	-0.000078	 0.044563	-0.000266
											CHANNELS 3 Zrotation Xrotation Yrotation
											End Site
											{
												OFFSET	-0.000219	 0.124998	-0.000745
											}
										}
									}
								}
								JOINT Left_PinkyProximal
								{
									OFFSET	-0.004105	 0.131699	-0.052702
									CHANNELS 3 Zrotation Xrotation Yrotation
									JOINT Left_PinkyIntermediate
									{
										OFFSET	-0.000193	 0.051773	-0.000246
										CHANNELS 3 Zrotation Xrotation Yrotation
										JOINT Left_PinkyDistal
										{
											OFFSET	-0.000106	 0.032399	-0.000161
											CHANNELS 3 Zrotation Xrotation Yrotation
											End Site
											{
												OFFSET	-0.000410	 0.124998	-0.000622
											}
										}
									}
								}
								JOINT Left_RingProximal
								{
									OFFSET	-0.020290	 0.145227	-0.023773
									CHANNELS 3 Zrotation Xrotation Yrotation
									JOINT Left_RingIntermediate
									{
										OFFSET	-0.000186	 0.067454	-0.000370
										CHANNELS 3 Zrotation Xrotation Yrotation
										JOINT Left_RingDistal
										{
											OFFSET	-0.000148	 0.046919	-0.000324
											CHANNELS 3 Zrotation Xrotation Yrotation
											End Site
											{
												OFFSET	-0.000393	 0.124996	-0.000863
											}
										}
									}
								}
								JOINT Left_ThumbProximal
								{
									OFFSET	 0.011410	 0.058743	 0.052654
									CHANNELS 3 Zrotation Xrotation Yrotation
									JOINT Left_ThumbIntermediate
									{
										OFFSET	-0.000063	 0.049817	 0.007157
										CHANNELS 3 Zrotation Xrotation Yrotation
										JOINT Left_ThumbDistal
										{
											OFFSET	 0.000248	 0.068644	-0.010463
											CHANNELS 3 Zrotation Xrotation Yrotation
											End Site
											{
												OFFSET	 0.000447	 0.123572	-0.018836
											}
										}
									}
								}
							}
						}
					}
				}
				JOINT Neck
				{
					OFFSET	 0.003684	 0.290360	-0.026651
					CHANNELS 3 Zrotation Xrotation Yrotation
					JOINT Head
					{
						OFFSET	 0.000000	 0.154082	 0.000000
						CHANNELS 3 Zrotation Xrotation Yrotation
						End Site
						{
							OFFSET	 0.000000	 0.125000	 0.000000
						}
					}
				}
				JOINT Right_Shoulder
				{
					OFFSET	-0.029917	 0.213129	-0.009433
					CHANNELS 3 Zrotation Xrotation Yrotation
					JOINT Right_UpperArm
					{
						OFFSET	-0.186580	-0.004484	 0.000219
						CHANNELS 3 Zrotation Xrotation Yrotation
						JOINT Right_LowerArm
						{
							OFFSET	-0.000051	-0.343489	 0.001339
							CHANNELS 3 Zrotation Xrotation Yrotation
							JOINT Right_Hand
							{
								OFFSET	 0.000055	-0.344728	-0.000264
								CHANNELS 3 Zrotation Xrotation Yrotation
								JOINT Right_IndexProximal
								{
									OFFSET	 0.028263	-0.154302	-0.041692
									CHANNELS 3 Zrotation Xrotation Yrotation
									JOINT Right_IndexIntermediate
									{
										OFFSET	 0.000075	-0.062927	 0.000407
										CHANNELS 3 Zrotation Xrotation Yrotation
										JOINT Right_IndexDistal
										{
											OFFSET	 0.000088	-0.046471	 0.000452
											CHANNELS 3 Zrotation Xrotation Yrotation
											End Site
											{
												OFFSET	 0.000237	-0.124994	 0.001215
											}
										}
									}
								}
								JOINT Right_MiddleProximal
								{
									OFFSET	 0.034615	-0.152060	-0.007383
									CHANNELS 3 Zrotation Xrotation Yrotation
									JOINT Right_MiddleIntermediate
									{
										OFFSET	-0.005287	-0.082659	-0.005966
										CHANNELS 3 Zrotation Xrotation Yrotation
										JOINT Right_MiddleDistal
										{
											OFFSET	 0.000107	-0.044083	 0.000270
											CHANNELS 3 Zrotation Xrotation Yrotation
											End Site
											{
												OFFSET	 0.000303	-0.124997	 0.000766
											}
										}
									}
								}
								JOINT Right_PinkyProximal
								{
									OFFSET	-0.000035	-0.131179	 0.052464
									CHANNELS 3 Zrotation Xrotation Yrotation
									JOINT Right_PinkyIntermediate
									{
										OFFSET	 0.000186	-0.050983	 0.000253
										CHANNELS 3 Zrotation Xrotation Yrotation
										JOINT Right_PinkyDistal
										{
											OFFSET	 0.000125	-0.031289	 0.000166
											CHANNELS 3 Zrotation Xrotation Yrotation
											End Site
											{
												OFFSET	 0.000500	-0.124997	 0.000663
											}
										}
									}
								}
								JOINT Right_RingProximal
								{
									OFFSET	 0.018675	-0.144858	 0.025202
									CHANNELS 3 Zrotation Xrotation Yrotation
									JOINT Right_RingIntermediate
									{
										OFFSET	 0.000169	-0.064428	 0.000368
										CHANNELS 3 Zrotation Xrotation Yrotation
										JOINT Right_RingDistal
										{
											OFFSET	 0.000179	-0.046159	 0.000330
											CHANNELS 3 Zrotation Xrotation Yrotation
											End Site
											{
												OFFSET	 0.000485	-0.124996	 0.000893
											}
										}
									}
								}
								JOINT Right_ThumbProximal
								{
									OFFSET	-0.008400	-0.060190	-0.052472
									CHANNELS 3 Zrotation Xrotation Yrotation
									JOINT Right_ThumbIntermediate
									{
										OFFSET	 0.000077	-0.049243	-0.007057
										CHANNELS 3 Zrotation Xrotation Yrotation
										JOINT Right_ThumbDistal
										{
											OFFSET	-0.000260	-0.068736	 0.010510
											CHANNELS 3 Zrotation Xrotation Yrotation
											End Site
											{
												OFFSET	-0.000468	-0.123563	 0.018893
											}
										}
									}
								}
							}
						}
					}
				}
			}
		}
	}
}
MOTION
Frames: 4
Frame Time: 0.060000
-0.081 0.957 -0.32 -2.135 8.648 5.417 -2.637 24.675 1.04 -1.578 -0.303 0.419 -1.022 -0.195 0.292 -5.544 -11.69 -5.387 -115.925 60.441 15.975 17.715 26.751 -12.517 11.459 10.975 -3.215 -33.006 0.028 92.995 2.333 49.03 -0.94 5.149 49.243 -3.246 -47.163 2.073 87.017 2.135 54.525 -8.845 6.581 63.255 -7.221 -32.227 0.071 62.432 4.357 68.758 -9.054 -2.673 63.587 3.302 -43.061 0.891 72.232 -2.632 61.998 0.42 -2.591 65.453 1.182 -20.484 45.396 -168.64 9.132 44.882 -4.104 2.013 2.926 -0.204 -13.853 -20.013 -32.004 -0 -6.959 0 -176.615 13.699 175.158 -81.679 50.807 -42.809 16.741 22.033 -26.979 19.206 6.4 -5.13 -55.556 -2.255 86.045 3.814 32.488 -0.932 2.497 20.378 -0.609 -59.924 5.097 75.57 -2.961 31.751 3.548 2.157 20.344 -1.003 -58.701 14.845 68.237 0.825 24.461 -1.845 1.747 27.378 0.355 -62.714 7.842 73.525 1.116 26.066 -0.592 1.178 27.975 -0.272 -35.382 19.991 -154.985 10.417 43.19 -4.247 0.885 -6.248 0.251
-0.083 0.956 -0.32 -2.229 8.691 5.659 -2.854 24.541 1.093 -1.648 -0.305 0.356 -1.101 -0.195 0.23 -5.308 -11.681 -5.39 -115.853 60.729 15.836 17.596 26.675 -12.591 11.157 10.884 -3.242 -33.128 -0.034 92.95 2.308 48.736 -0.923 5.075 48.878 -3.184 -47.303 2.096 87.041 2.07 54.014 -8.767 6.375 62.611 -6.996 -32.187 0.029 62.417 4.115 68.168 -8.785 -2.585 63.057 3.213 -43.17 0.921 72.249 -2.575 61.372 0.382 -2.529 64.875 1.13 -20.546 45.329 -168.581 8.996 44.609 -4.02 2.001 2.838 -0.2 -13.583 -19.883 -31.839 0 -6.959 0 -176.784 13.573 175.35 -83.273 50.648 -42.352 17.28 22.913 -27.909 18.893 4.682 -5.331 -54.22 -2.495 85.937 3.656 31.511 -0.86 2.501 20.403 -0.611 -58.728 4.802 75.372 -2.939 31.123 3.535 2.126 20.133 -0.985 -57.902 14.549 68.057 0.75 23.709 -1.776 1.631 25.431 0.345 -61.829 7.586 73.35 1.069 25.276 -0.562 1.115 26.989 -0.247 -35.459 19.989 -154.976 10.112 42.626 -4.065 0.689 -7.395 0.284
-0.084 0.956 -0.32 -2.298 8.667 5.893 -3.027 24.492 1.133 -1.699 -0.304 0.297 -1.163 -0.195 0.173 -5.225 -11.673 -5.473 -115.841 60.866 15.63 17.598 26.819 -12.844 10.893 10.776 -3.346 -33.239 -0.095 92.904 2.301 48.651 -0.918 5.047 48.744 -3.161 -47.393 2.119 87.07 2.041 53.786 -8.726 6.24 62.173 -6.849 -32.138 -0.004 62.41 3.969 67.786 -8.621 -2.515 62.617 3.141 -43.26 0.954 72.272 -2.541 60.987 0.359 -2.483 64.438 1.092 -20.596 45.235 -168.518 8.859 44.333 -3.936 1.989 2.747 -0.195 -13.261 -19.88 -31.612 -0 -6.959 0 -176.772 13.444 175.464 -84.249 50.54 -41.511 17.738 23.486 -28.203 18.758 4.039 -5.405 -53.484 -2.718 85.703 3.619 31.284 -0.843 2.51 20.455 -0.614 -58.475 4.7 75.229 -2.937 31.011 3.539 2.103 19.977 -0.971 -57.776 14.496 68.021 0.694 23.165 -1.722 1.576 24.484 0.338 -61.693 7.525 73.266 1.046 24.87 -0.547 1.086 26.529 -0.236 -35.444 19.934 -154.972 9.755 41.991 -3.859 0.66 -7.548 0.287
-0.085 0.956 -0.319 -2.331 8.593 6.035 -3.148 24.476 1.159 -1.73 -0.3 0.239 -1.212 -0.193 0.118 -5.242 -11.625 -5.531 -115.66 60.84 15.504 17.668 27.008 -12.973 10.76 10.596 -3.405 -33.299 -0.122 92.885 2.299 48.619 -0.916 5.035 48.681 -3.151 -47.451 2.133 87.087 2.034 53.732 -8.717 6.21 62.075 -6.816 -32.122 -0.011 62.411 3.936 67.7 -8.584 -2.494 62.483 3.12 -43.309 0.974 72.288 -2.534 60.901 0.354 -2.471 64.314 1.082 -20.617 45.192 -168.491 8.804 44.221 -3.903 1.983 2.704 -0.192 -12.973 -19.86 -31.464 -0 -6.959 0 -176.612 13.258 175.56 -84.572 50.473 -41.022 17.874 23.711 -28.286 18.769 3.909 -5.514 -53.397 -2.761 85.644 3.612 31.239 -0.84 2.514 20.474 -0.615 -58.42 4.666 75.166 -2.937 30.948 3.547 2.073 19.779 -0.955 -57.757 14.481 67.998 0.688 23.108 -1.716 1.572 24.409 0.337 -61.668 7.505 73.225 1.043 24.811 -0.545 1.078 26.403 -0.233 -35.408 19.908 -154.974 9.719 41.925 -3.839 0.652 -7.594 0.288
